<?xml version="1.0" encoding="UTF-8" standalone="no"?>
<!DOCTYPE svg PUBLIC "-//W3C//DTD SVG 1.1//EN"
 "http://www.w3.org/Graphics/SVG/1.1/DTD/svg11.dtd">
<!-- Generated by graphviz version 2.38.0 (20140413.2041)
 -->
<!-- Title: drains Pages: 1 -->
<svg width="450pt" height="260pt"
 viewBox="0.00 0.00 449.50 260.00" xmlns="http://www.w3.org/2000/svg" xmlns:xlink="http://www.w3.org/1999/xlink">
<g id="graph0" class="graph" transform="scale(1 1) rotate(0) translate(4 256)">
<title>drains</title>
<polygon fill="white" stroke="none" points="-4,4 -4,-256 445.5,-256 445.5,4 -4,4"/>
<!-- base -->
<g id="node1" class="node"><title>base</title>
<ellipse fill="none" stroke="black" cx="171.5" cy="-234" rx="51.1914" ry="18"/>
<text text-anchor="middle" x="171.5" y="-230.3" font-family="Times,serif" font-size="14.00">EventDrain</text>
</g>
<!-- null -->
<g id="node2" class="node"><title>null</title>
<ellipse fill="none" stroke="black" cx="112.5" cy="-162" rx="46.2923" ry="18"/>
<text text-anchor="middle" x="112.5" y="-158.3" font-family="Times,serif" font-size="14.00">NullDrain</text>
</g>
<!-- base&#45;&#45;null -->
<g id="edge1" class="edge"><title>base&#45;&#45;null</title>
<path fill="none" stroke="black" d="M157.518,-216.411C148.113,-205.252 135.766,-190.604 126.382,-179.47"/>
</g>
<!-- bound -->
<g id="node3" class="node"><title>bound</title>
<ellipse fill="none" stroke="black" cx="230.5" cy="-162" rx="53.8905" ry="18"/>
<text text-anchor="middle" x="230.5" y="-158.3" font-family="Times,serif" font-size="14.00">BoundDrain</text>
</g>
<!-- base&#45;&#45;bound -->
<g id="edge2" class="edge"><title>base&#45;&#45;bound</title>
<path fill="none" stroke="black" d="M185.482,-216.411C194.887,-205.252 207.234,-190.604 216.618,-179.47"/>
</g>
<!-- protobuf -->
<g id="node4" class="node"><title>protobuf</title>
<ellipse fill="none" stroke="black" cx="230.5" cy="-90" rx="63.0888" ry="18"/>
<text text-anchor="middle" x="230.5" y="-86.3" font-family="Times,serif" font-size="14.00">ProtoBufDrain</text>
</g>
<!-- bound&#45;&#45;protobuf -->
<g id="edge3" class="edge"><title>bound&#45;&#45;protobuf</title>
<path fill="none" stroke="black" d="M230.5,-143.697C230.5,-132.846 230.5,-118.917 230.5,-108.104"/>
</g>
<!-- daemon -->
<g id="node5" class="node"><title>daemon</title>
<polygon fill="none" stroke="black" points="101,-36 0,-36 0,-0 101,-0 101,-36"/>
<text text-anchor="middle" x="50.5" y="-14.3" font-family="Times,serif" font-size="14.00">Daemon*Drain</text>
</g>
<!-- protobuf&#45;&#45;daemon -->
<g id="edge4" class="edge"><title>protobuf&#45;&#45;daemon</title>
<path fill="none" stroke="black" d="M194.507,-75.0027C165.678,-63.7914 125.116,-48.0175 94.3846,-36.0662"/>
</g>
<!-- manager -->
<g id="node6" class="node"><title>manager</title>
<polygon fill="none" stroke="black" points="222,-36 119,-36 119,-0 222,-0 222,-36"/>
<text text-anchor="middle" x="170.5" y="-14.3" font-family="Times,serif" font-size="14.00">Manager*Drain</text>
</g>
<!-- protobuf&#45;&#45;manager -->
<g id="edge5" class="edge"><title>protobuf&#45;&#45;manager</title>
<path fill="none" stroke="black" d="M216.281,-72.411C206.994,-61.5758 194.886,-47.4498 185.454,-36.4468"/>
</g>
<!-- spawner -->
<g id="node7" class="node"><title>spawner</title>
<polygon fill="none" stroke="black" points="341,-36 240,-36 240,-0 341,-0 341,-36"/>
<text text-anchor="middle" x="290.5" y="-14.3" font-family="Times,serif" font-size="14.00">Spawner*Drain</text>
</g>
<!-- protobuf&#45;&#45;spawner -->
<g id="edge6" class="edge"><title>protobuf&#45;&#45;spawner</title>
<path fill="none" stroke="black" d="M244.719,-72.411C254.006,-61.5758 266.114,-47.4498 275.546,-36.4468"/>
</g>
<!-- public -->
<g id="node8" class="node"><title>public</title>
<polygon fill="none" stroke="black" points="441.5,-36 359.5,-36 359.5,-0 441.5,-0 441.5,-36"/>
<text text-anchor="middle" x="400.5" y="-14.3" font-family="Times,serif" font-size="14.00">PublicDrain</text>
</g>
<!-- protobuf&#45;&#45;public -->
<g id="edge7" class="edge"><title>protobuf&#45;&#45;public</title>
<path fill="none" stroke="black" d="M264.902,-74.8345C292.165,-63.6086 330.346,-47.8869 359.249,-35.9855"/>
</g>
</g>
</svg>
