<?xml version="1.0" encoding="UTF-8" standalone="no"?>
<!DOCTYPE svg PUBLIC "-//W3C//DTD SVG 1.1//EN"
 "http://www.w3.org/Graphics/SVG/1.1/DTD/svg11.dtd">
<!-- Generated by graphviz version 2.38.0 (20140413.2041)
 -->
<!-- Title: loop Pages: 1 -->
<svg width="389pt" height="400pt"
 viewBox="0.00 0.00 389.30 400.00" xmlns="http://www.w3.org/2000/svg" xmlns:xlink="http://www.w3.org/1999/xlink">
<g id="graph0" class="graph" transform="scale(1 1) rotate(0) translate(4 396)">
<title>loop</title>
<polygon fill="white" stroke="none" points="-4,4 -4,-396 385.297,-396 385.297,4 -4,4"/>
<!-- src1 -->
<g id="node1" class="node"><title>src1</title>
<polygon fill="none" stroke="black" points="106.5,-392 20.5,-392 20.5,-354 106.5,-354 106.5,-392"/>
<text text-anchor="middle" x="63.5" y="-376.8" font-family="Times,serif" font-size="14.00">EventSource</text>
<text text-anchor="middle" x="63.5" y="-361.8" font-family="Times,serif" font-size="14.00">(parse)</text>
</g>
<!-- loop -->
<g id="node6" class="node"><title>loop</title>
<ellipse fill="none" stroke="black" cx="115.5" cy="-285" rx="61.1893" ry="18"/>
<text text-anchor="middle" x="115.5" y="-281.3" font-family="Times,serif" font-size="14.00">LoopManager</text>
</g>
<!-- src1&#45;&gt;loop -->
<g id="edge1" class="edge"><title>src1&#45;&gt;loop</title>
<path fill="none" stroke="black" d="M74.5279,-353.762C81.9401,-341.503 91.815,-325.171 100.013,-311.613"/>
<polygon fill="black" stroke="black" points="103.191,-313.122 105.37,-302.754 97.2004,-309.5 103.191,-313.122"/>
<text text-anchor="middle" x="98" y="-324.8" font-family="Times,serif" font-size="14.00">1</text>
</g>
<!-- src2 -->
<g id="node2" class="node"><title>src2</title>
<polygon fill="none" stroke="black" points="210.5,-392 124.5,-392 124.5,-354 210.5,-354 210.5,-392"/>
<text text-anchor="middle" x="167.5" y="-376.8" font-family="Times,serif" font-size="14.00">EventSource</text>
<text text-anchor="middle" x="167.5" y="-361.8" font-family="Times,serif" font-size="14.00">(parse)</text>
</g>
<!-- src2&#45;&gt;loop -->
<g id="edge2" class="edge"><title>src2&#45;&gt;loop</title>
<path fill="none" stroke="black" d="M156.472,-353.762C149.06,-341.503 139.185,-325.171 130.987,-311.613"/>
<polygon fill="black" stroke="black" points="133.8,-309.5 125.63,-302.754 127.809,-313.122 133.8,-309.5"/>
<text text-anchor="middle" x="149" y="-324.8" font-family="Times,serif" font-size="14.00">1</text>
</g>
<!-- drain -->
<g id="node3" class="node"><title>drain</title>
<polygon fill="none" stroke="black" points="79,-216 0,-216 0,-178 79,-178 79,-216"/>
<text text-anchor="middle" x="39.5" y="-200.8" font-family="Times,serif" font-size="14.00">EventDrain</text>
<text text-anchor="middle" x="39.5" y="-185.8" font-family="Times,serif" font-size="14.00">(flush)</text>
</g>
<!-- drain&#45;&gt;loop -->
<g id="edge4" class="edge"><title>drain&#45;&gt;loop</title>
<path fill="none" stroke="black" d="M55.4205,-216.015C66.6193,-228.688 81.7355,-245.793 94.0035,-259.675"/>
<polygon fill="black" stroke="black" points="91.6018,-262.243 100.846,-267.418 96.8471,-257.607 91.6018,-262.243"/>
<text text-anchor="middle" x="91" y="-237.8" font-family="Times,serif" font-size="14.00">6a</text>
</g>
<!-- enqueue -->
<g id="node4" class="node"><title>enqueue</title>
<polygon fill="none" stroke="black" points="115,-127 36,-127 36,-89 115,-89 115,-127"/>
<text text-anchor="middle" x="75.5" y="-111.8" font-family="Times,serif" font-size="14.00">EventDrain</text>
<text text-anchor="middle" x="75.5" y="-96.8" font-family="Times,serif" font-size="14.00">(enqueue)</text>
</g>
<!-- enqueue&#45;&gt;loop -->
<g id="edge7" class="edge"><title>enqueue&#45;&gt;loop</title>
<path fill="none" stroke="black" d="M79.6633,-127.214C86.7319,-158.139 101.113,-221.057 109.346,-257.077"/>
<polygon fill="black" stroke="black" points="105.951,-257.933 111.592,-266.902 112.775,-256.373 105.951,-257.933"/>
<text text-anchor="middle" x="106" y="-193.3" font-family="Times,serif" font-size="14.00">4a</text>
</g>
<!-- event -->
<g id="node5" class="node"><title>event</title>
<ellipse fill="none" stroke="black" cx="181.5" cy="-197" rx="31.3957" ry="18"/>
<text text-anchor="middle" x="181.5" y="-193.3" font-family="Times,serif" font-size="14.00">Event</text>
</g>
<!-- event&#45;&gt;enqueue -->
<g id="edge6" class="edge"><title>event&#45;&gt;enqueue</title>
<path fill="none" stroke="black" d="M166.579,-181.147C155.784,-170.656 140.662,-156.48 126.5,-145 121.527,-140.969 116.135,-136.882 110.78,-132.979"/>
<polygon fill="black" stroke="black" points="112.634,-130.002 102.464,-127.032 108.562,-135.696 112.634,-130.002"/>
<text text-anchor="middle" x="151" y="-148.8" font-family="Times,serif" font-size="14.00">3a</text>
</g>
<!-- critical -->
<g id="node7" class="node"><title>critical</title>
<polygon fill="none" stroke="black" points="236,-127 133,-127 133,-89 236,-89 236,-127"/>
<text text-anchor="middle" x="184.5" y="-111.8" font-family="Times,serif" font-size="14.00">AbortException</text>
<text text-anchor="middle" x="184.5" y="-96.8" font-family="Times,serif" font-size="14.00">CleanExit</text>
</g>
<!-- event&#45;&gt;critical -->
<g id="edge8" class="edge"><title>event&#45;&gt;critical</title>
<path fill="none" stroke="red" d="M182.093,-178.812C182.5,-167.011 183.049,-151.072 183.521,-137.404"/>
<polygon fill="red" stroke="red" points="187.031,-137.166 183.878,-127.051 180.035,-136.925 187.031,-137.166"/>
<text text-anchor="middle" x="190.5" y="-148.8" font-family="Times,serif" font-size="14.00">3b</text>
</g>
<!-- error -->
<g id="node8" class="node"><title>error</title>
<polygon fill="none" stroke="black" points="337,-127 254,-127 254,-89 337,-89 337,-127"/>
<text text-anchor="middle" x="295.5" y="-111.8" font-family="Times,serif" font-size="14.00">Other</text>
<text text-anchor="middle" x="295.5" y="-96.8" font-family="Times,serif" font-size="14.00">SfException</text>
</g>
<!-- event&#45;&gt;error -->
<g id="edge9" class="edge"><title>event&#45;&gt;error</title>
<path fill="none" stroke="red" d="M199.564,-182.215C216.67,-169.16 242.737,-149.266 263.385,-133.509"/>
<polygon fill="red" stroke="red" points="265.746,-136.11 271.573,-127.26 261.5,-130.545 265.746,-136.11"/>
<text text-anchor="middle" x="252" y="-148.8" font-family="Times,serif" font-size="14.00">3c</text>
</g>
<!-- loop&#45;&gt;drain -->
<g id="edge3" class="edge"><title>loop&#45;&gt;drain</title>
<path fill="none" stroke="black" d="M77.3554,-270.935C66.9061,-265.64 56.5334,-258.478 49.5,-249 44.6398,-242.451 41.9651,-234.168 40.5384,-226.193"/>
<polygon fill="black" stroke="black" points="43.9873,-225.56 39.3029,-216.057 37.0387,-226.407 43.9873,-225.56"/>
<text text-anchor="middle" x="56" y="-237.8" font-family="Times,serif" font-size="14.00">5a</text>
</g>
<!-- loop&#45;&gt;event -->
<g id="edge5" class="edge"><title>loop&#45;&gt;event</title>
<path fill="none" stroke="black" d="M128.539,-267.009C138.463,-254.078 152.244,-236.121 163.261,-221.766"/>
<polygon fill="black" stroke="black" points="166.066,-223.86 169.378,-213.796 160.513,-219.598 166.066,-223.86"/>
<text text-anchor="middle" x="156" y="-237.8" font-family="Times,serif" font-size="14.00">2</text>
</g>
<!-- terminate -->
<g id="node10" class="node"><title>terminate</title>
<polygon fill="none" stroke="black" points="239.5,-38 129.5,-38 129.5,-0 239.5,-0 239.5,-38"/>
<text text-anchor="middle" x="184.5" y="-22.8" font-family="Times,serif" font-size="14.00">(Critical) System</text>
<text text-anchor="middle" x="184.5" y="-7.8" font-family="Times,serif" font-size="14.00">termination</text>
</g>
<!-- critical&#45;&gt;terminate -->
<g id="edge10" class="edge"><title>critical&#45;&gt;terminate</title>
<path fill="none" stroke="black" d="M184.5,-88.9735C184.5,-77.1918 184.5,-61.5607 184.5,-48.1581"/>
<polygon fill="black" stroke="black" points="188,-48.0033 184.5,-38.0034 181,-48.0034 188,-48.0033"/>
<text text-anchor="middle" x="191.5" y="-59.8" font-family="Times,serif" font-size="14.00">4b</text>
</g>
<!-- ignore -->
<g id="node9" class="node"><title>ignore</title>
<ellipse fill="none" stroke="black" cx="347.5" cy="-19" rx="33.5952" ry="18"/>
<text text-anchor="middle" x="347.5" y="-15.3" font-family="Times,serif" font-size="14.00">Ignore</text>
</g>
<!-- error&#45;&gt;ignore -->
<g id="edge11" class="edge"><title>error&#45;&gt;ignore</title>
<path fill="none" stroke="black" d="M306.274,-88.9735C313.888,-76.2352 324.191,-58.9972 332.593,-44.941"/>
<polygon fill="black" stroke="black" points="335.665,-46.6222 337.792,-36.2429 329.657,-43.0308 335.665,-46.6222"/>
<text text-anchor="middle" x="332" y="-59.8" font-family="Times,serif" font-size="14.00">4c</text>
</g>
<!-- ignore&#45;&gt;loop -->
<g id="edge12" class="edge"><title>ignore&#45;&gt;loop</title>
<path fill="none" stroke="black" d="M351.642,-37.0915C356.051,-59.2319 360.528,-98.3768 345.5,-127 307.444,-199.484 219.102,-244.769 163.648,-267.124"/>
<polygon fill="black" stroke="black" points="162.06,-263.987 154.034,-270.903 164.621,-270.502 162.06,-263.987"/>
<text text-anchor="middle" x="341" y="-148.8" font-family="Times,serif" font-size="14.00">5c</text>
</g>
</g>
</svg>
