<?xml version="1.0" encoding="UTF-8" standalone="no"?>
<!DOCTYPE svg PUBLIC "-//W3C//DTD SVG 1.1//EN"
 "http://www.w3.org/Graphics/SVG/1.1/DTD/svg11.dtd">
<!-- Generated by graphviz version 2.38.0 (20140413.2041)
 -->
<!-- Title: sources Pages: 1 -->
<svg width="576pt" height="193pt"
 viewBox="0.00 0.00 576.00 192.74" xmlns="http://www.w3.org/2000/svg" xmlns:xlink="http://www.w3.org/1999/xlink">
<g id="graph0" class="graph" transform="scale(0.741313 0.741313) rotate(0) translate(4 256)">
<title>sources</title>
<polygon fill="white" stroke="none" points="-4,4 -4,-256 773,-256 773,4 -4,4"/>
<!-- base -->
<g id="node1" class="node"><title>base</title>
<ellipse fill="none" stroke="black" cx="484.5" cy="-234" rx="55.7903" ry="18"/>
<text text-anchor="middle" x="484.5" y="-230.3" font-family="Times,serif" font-size="14.00">EventSource</text>
</g>
<!-- bound -->
<g id="node2" class="node"><title>bound</title>
<ellipse fill="none" stroke="black" cx="243.5" cy="-162" rx="58.4896" ry="18"/>
<text text-anchor="middle" x="243.5" y="-158.3" font-family="Times,serif" font-size="14.00">BoundSource</text>
</g>
<!-- base&#45;&#45;bound -->
<g id="edge5" class="edge"><title>base&#45;&#45;bound</title>
<path fill="none" stroke="black" d="M444.433,-221.362C400.13,-208.494 329.131,-187.872 284.469,-174.9"/>
</g>
<!-- manual -->
<g id="node4" class="node"><title>manual</title>
<polygon fill="none" stroke="black" points="415.5,-180 319.5,-180 319.5,-144 415.5,-144 415.5,-180"/>
<text text-anchor="middle" x="367.5" y="-158.3" font-family="Times,serif" font-size="14.00">ManualSource</text>
</g>
<!-- base&#45;&#45;manual -->
<g id="edge1" class="edge"><title>base&#45;&#45;manual</title>
<path fill="none" stroke="black" d="M459.113,-217.811C440.563,-206.713 415.391,-191.653 396.126,-180.127"/>
</g>
<!-- readline -->
<g id="node5" class="node"><title>readline</title>
<polygon fill="none" stroke="black" points="535.5,-180 433.5,-180 433.5,-144 535.5,-144 535.5,-180"/>
<text text-anchor="middle" x="484.5" y="-158.3" font-family="Times,serif" font-size="14.00">ReadlineSource</text>
</g>
<!-- base&#45;&#45;readline -->
<g id="edge2" class="edge"><title>base&#45;&#45;readline</title>
<path fill="none" stroke="black" d="M484.5,-215.697C484.5,-204.846 484.5,-190.917 484.5,-180.104"/>
</g>
<!-- sched -->
<g id="node6" class="node"><title>sched</title>
<polygon fill="none" stroke="black" points="661.5,-180 553.5,-180 553.5,-144 661.5,-144 661.5,-180"/>
<text text-anchor="middle" x="607.5" y="-158.3" font-family="Times,serif" font-size="14.00">SchedulerSource</text>
</g>
<!-- base&#45;&#45;sched -->
<g id="edge3" class="edge"><title>base&#45;&#45;sched</title>
<path fill="none" stroke="black" d="M510.887,-217.983C530.369,-206.896 556.922,-191.784 577.261,-180.209"/>
</g>
<!-- signal -->
<g id="node7" class="node"><title>signal</title>
<polygon fill="none" stroke="black" points="769,-180 680,-180 680,-144 769,-144 769,-180"/>
<text text-anchor="middle" x="724.5" y="-158.3" font-family="Times,serif" font-size="14.00">SignalSource</text>
</g>
<!-- base&#45;&#45;signal -->
<g id="edge4" class="edge"><title>base&#45;&#45;signal</title>
<path fill="none" stroke="black" d="M525.597,-221.638C563.349,-211.118 620.809,-194.898 670.5,-180 673.513,-179.097 676.616,-178.154 679.74,-177.195"/>
</g>
<!-- protobuf -->
<g id="node3" class="node"><title>protobuf</title>
<ellipse fill="none" stroke="black" cx="243.5" cy="-90" rx="67.6881" ry="18"/>
<text text-anchor="middle" x="243.5" y="-86.3" font-family="Times,serif" font-size="14.00">ProtoBufSource</text>
</g>
<!-- bound&#45;&#45;protobuf -->
<g id="edge6" class="edge"><title>bound&#45;&#45;protobuf</title>
<path fill="none" stroke="black" d="M243.5,-143.697C243.5,-132.846 243.5,-118.917 243.5,-108.104"/>
</g>
<!-- daemon -->
<g id="node8" class="node"><title>daemon</title>
<polygon fill="none" stroke="black" points="107,-36 -7.10543e-15,-36 -7.10543e-15,-0 107,-0 107,-36"/>
<text text-anchor="middle" x="53.5" y="-14.3" font-family="Times,serif" font-size="14.00">Daemon*Source</text>
</g>
<!-- protobuf&#45;&#45;daemon -->
<g id="edge7" class="edge"><title>protobuf&#45;&#45;daemon</title>
<path fill="none" stroke="black" d="M205.507,-75.0027C175.077,-63.7914 132.262,-48.0175 99.8226,-36.0662"/>
</g>
<!-- manager -->
<g id="node9" class="node"><title>manager</title>
<polygon fill="none" stroke="black" points="235.5,-36 125.5,-36 125.5,-0 235.5,-0 235.5,-36"/>
<text text-anchor="middle" x="180.5" y="-14.3" font-family="Times,serif" font-size="14.00">Manager*Source</text>
</g>
<!-- protobuf&#45;&#45;manager -->
<g id="edge8" class="edge"><title>protobuf&#45;&#45;manager</title>
<path fill="none" stroke="black" d="M228.57,-72.411C218.818,-61.5758 206.105,-47.4498 196.202,-36.4468"/>
</g>
<!-- spawner -->
<g id="node10" class="node"><title>spawner</title>
<polygon fill="none" stroke="black" points="361.5,-36 253.5,-36 253.5,-0 361.5,-0 361.5,-36"/>
<text text-anchor="middle" x="307.5" y="-14.3" font-family="Times,serif" font-size="14.00">Spawner*Source</text>
</g>
<!-- protobuf&#45;&#45;spawner -->
<g id="edge9" class="edge"><title>protobuf&#45;&#45;spawner</title>
<path fill="none" stroke="black" d="M258.667,-72.411C268.574,-61.5758 281.489,-47.4498 291.549,-36.4468"/>
</g>
<!-- public -->
<g id="node11" class="node"><title>public</title>
<polygon fill="none" stroke="black" points="469,-36 380,-36 380,-0 469,-0 469,-36"/>
<text text-anchor="middle" x="424.5" y="-14.3" font-family="Times,serif" font-size="14.00">PublicSource</text>
</g>
<!-- protobuf&#45;&#45;public -->
<g id="edge10" class="edge"><title>protobuf&#45;&#45;public</title>
<path fill="none" stroke="black" d="M280.128,-74.8345C309.052,-63.6486 349.518,-47.9987 380.251,-36.1127"/>
</g>
</g>
</svg>
